<?xml version="1.0" standalone="no"?>
<!DOCTYPE svg PUBLIC "-//W3C//DTD SVG 1.1//EN" "http://www.w3.org/Graphics/SVG/1.1/DTD/svg11.dtd" >
<svg xmlns="http://www.w3.org/2000/svg" xmlns:xlink="http://www.w3.org/1999/xlink" version="1.1">
<metadata></metadata>
<defs>
<font id="ironfield_cfblack_oblique" horiz-adv-x="1224" >
<font-face units-per-em="2048" ascent="1638" descent="-410" />
<missing-glyph horiz-adv-x="573" />
<glyph horiz-adv-x="0" />
<glyph horiz-adv-x="682" />
<glyph unicode=" "  horiz-adv-x="573" />
<glyph unicode="&#x09;" horiz-adv-x="573" />
<glyph unicode="&#xa0;" horiz-adv-x="573" />
<glyph unicode="!" horiz-adv-x="604" d="M-33 0l70 410h405l-71 -410h-404zM66 555l153 879h404l-154 -879h-403z" />
<glyph unicode="&#x22;" horiz-adv-x="1210" d="M-43 809l109 625h403l-109 -625h-403zM563 809l109 625h403l-108 -625h-404z" />
<glyph unicode="#" horiz-adv-x="1622" d="M29 346l49 277h231l43 129h-202l47 276h247l136 406h405l-137 -406h129l135 406h406l-136 -406h187l-47 -276h-232l-43 -129h203l-47 -277h-248l-115 -346h-405l115 346h-127l-115 -346h-406l115 346h-188zM715 623h127l43 129h-127z" />
<glyph unicode="$" d="M8 0l72 410h405l-18 -101h215l31 176l-559 254l122 695h351l37 204h288l-37 -204h369l-78 -437h-403l22 127h-198l-29 -161l557 -263l-123 -700h-368l-39 -225h-289l39 225h-367z" />
<glyph unicode="%" horiz-adv-x="1282" d="M8 0l928 1434h405l-729 -1129h400l-56 -305h-401l55 303l-196 -303h-406zM74 1128l55 306h403l-55 -306h-403z" />
<glyph unicode="&#x26;" horiz-adv-x="1368" d="M8 0l131 737h248l-180 387l53 310h961l-54 -310h-534l182 -387h-272l-76 -428h274l76 428h510l-170 -178l-98 -559h-1051z" />
<glyph unicode="'" horiz-adv-x="610" d="M90 809l109 625h403l-108 -625h-404z" />
<glyph unicode="(" horiz-adv-x="841" d="M-80 -268l287 1628l704 117l-61 -344l-289 -58l-186 -1059l268 -57l-61 -344z" />
<glyph unicode=")" horiz-adv-x="841" d="M-143 -385l61 344l291 57l186 1059l-270 58l61 344l664 -117l-287 -1628z" />
<glyph unicode="*" horiz-adv-x="815" d="M193 1284l147 57l-127 60l137 180l80 -92l29 149h211l-29 -149l117 92l71 -180l-145 -60l123 -57l-133 -180l-84 92l-25 -149h-211l25 149l-113 -92z" />
<glyph unicode="+" horiz-adv-x="1064" d="M92 475l53 307h279l49 279h307l-49 -279h279l-52 -307h-280l-49 -280h-310l50 280h-277z" />
<glyph unicode="," horiz-adv-x="604" d="M-100 -393l217 393h-137l53 311h379l-54 -311z" />
<glyph unicode="-" horiz-adv-x="825" d="M51 475l53 307h625l-53 -307h-625z" />
<glyph unicode="." horiz-adv-x="602" d="M-33 0l56 305h401l-55 -305h-402z" />
<glyph unicode="/" horiz-adv-x="788" d="M-53 0l477 1434h403l-477 -1434h-403z" />
<glyph unicode="0" d="M-33 0l252 1434h1024l-252 -1434h-1024zM426 309h147l-88 344zM647 1124l82 -317l55 317h-137z" />
<glyph unicode="1" horiz-adv-x="712" d="M53 0l199 1124h-156l54 310h561l-252 -1434h-406z" />
<glyph unicode="2" d="M-33 0l49 274l693 424l75 426h-215l-73 -419h-404l127 729h1024l-149 -846l-541 -314h487l-49 -274h-1024z" />
<glyph unicode="3" horiz-adv-x="1206" d="M-33 0l49 274h602l82 463h-411l440 387h-563l53 310h1008l-53 -310l-435 -387h367l-107 -594l-24 -143h-1008z" />
<glyph unicode="4" horiz-adv-x="1318" d="M8 231l53 308l531 895h409l-532 -895h170l29 155h403l-27 -155h136l-54 -308h-137l-41 -231h-403l41 231h-578z" />
<glyph unicode="5" d="M-8 150l61 339h406l-27 -153l72 -27h137l57 320h-620l141 805h1024l-53 -310h-621l-34 -186h620l-164 -938h-704z" />
<glyph unicode="6" d="M-33 0l252 1434h1024l-65 -377h-404l10 67h-215l-34 -200h620l-164 -924h-1024zM426 309h215l53 309h-213z" />
<glyph unicode="7" horiz-adv-x="1212" d="M18 0l680 1124h-553l54 310h1081l-862 -1434h-400z" />
<glyph unicode="8" d="M-33 0l252 1434h1024l-98 -547h2l-156 -887h-1024zM426 309h215l47 273h-215zM528 887h213l43 237h-215z" />
<glyph unicode="9" d="M-33 0l68 377h405l-14 -68h215l37 201h-621l162 924h1024l-252 -1434h-1024zM514 815h215l55 309h-215z" />
<glyph unicode=":" horiz-adv-x="602" d="M-33 0l56 305h401l-55 -305h-402zM94 719l53 305h402l-51 -305h-404z" />
<glyph unicode=";" horiz-adv-x="602" d="M-233 -393l217 393h-150l55 305h9l2 6h379l-3 -6h15l-55 -305h-11zM-39 719l53 305h402l-51 -305h-404z" />
<glyph unicode="=" horiz-adv-x="825" d="M-94 166l53 309h625l-54 -309h-624zM-25 563l54 307h624l-53 -307h-625z" />
<glyph unicode="?" horiz-adv-x="1200" d="M117 975l53 297l29 162h1042l-72 -410l-393 -371l-16 -98h-406l23 125l393 371l12 79h-233l-29 -155h-403zM256 0l72 410h403l-69 -410h-406z" />
<glyph unicode="@" horiz-adv-x="1511" d="M8 0l252 1434h1311l-187 -1069h-620l86 487h-66l-51 -272h66l-119 -215h-170l123 700h442l-86 -485h111l104 579h-669l-156 -885h989l-49 -274h-1311z" />
<glyph unicode="A" d="M-33 0l252 1434h1024l-252 -1434h-405l39 219h-215l-39 -219h-404zM465 526h215l104 598h-215z" />
<glyph unicode="B" d="M-33 0l252 1434h1024l-72 -418l-124 -96h106l-25 -144l-137 -776h-1024zM426 309h215l64 357h-218zM504 756l254 215l26 153h-215z" />
<glyph unicode="C" horiz-adv-x="1036" d="M-12 150l227 1284h844l-53 -310h-441l-137 -788l70 -27h364l-55 -309h-526z" />
<glyph unicode="D" d="M-33 0l252 1434h1024l-227 -1284l-344 -150h-705zM426 309h139l82 27l137 788h-215z" />
<glyph unicode="E" horiz-adv-x="1062" d="M-33 0l252 1434h873l-54 -310h-469l-55 -311h291l-55 -309h-289l-35 -195h469l-55 -309h-873z" />
<glyph unicode="F" horiz-adv-x="1062" d="M-33 0l252 1434h873l-54 -310h-469l-73 -413h319l-51 -310h-322l-71 -401h-404z" />
<glyph unicode="G" horiz-adv-x="1177" d="M-8 150l227 1284h979l-55 -310h-574l-137 -788l72 -27h121l84 473h374l-84 -473h2l-55 -309h-659z" />
<glyph unicode="H" horiz-adv-x="1241" d="M-33 0l252 1434h404l-109 -623h231l109 623h406l-252 -1434h-406l88 502h-231l-88 -502h-404z" />
<glyph unicode="I" horiz-adv-x="636" d="M-10 0l252 1434h405l-252 -1434h-405z" />
<glyph unicode="J" horiz-adv-x="1062" d="M-33 0l56 309h383l81 27l138 788h-459l53 310h862l-225 -1284l-344 -150h-545z" />
<glyph unicode="K" horiz-adv-x="1277" d="M-33 0l252 1434h404l-54 -312l-67 -159l127 153l248 318h434l-785 -875h344l174 -559h-440l-139 492l-8 -9l-86 -483h-404z" />
<glyph unicode="L" horiz-adv-x="999" d="M-33 0l252 1434h404l-197 -1125h416l-56 -309h-819z" />
<glyph unicode="M" horiz-adv-x="1609" d="M-33 0l252 1434h408l168 -750l428 750h407l-252 -1434h-1411zM401 266h635l31 174l74 342l-273 -516h-295l-92 516l-49 -342z" />
<glyph unicode="N" horiz-adv-x="1284" d="M-33 0l45 266h2l205 1168h408l188 -633l10 145l86 488h392l-216 -1221l-36 -213h-1084zM406 266h251l-165 520l-19 -145z" />
<glyph unicode="O" d="M-33 0l252 1434h1024l-252 -1434h-1024zM426 309h215l143 815h-215z" />
<glyph unicode="P" d="M-33 0l252 1434h1024l-176 -1008h-621l-75 -426h-404zM500 735h215l69 389h-215z" />
<glyph unicode="Q" d="M-33 0l51 293l201 1141h1024l-201 -1135h-403l145 825h-215l-145 -831h215l6 -158h369l-56 -309h-426l-18 174h-547z" />
<glyph unicode="R" horiz-adv-x="1228" d="M-33 0l252 1434h1024l-166 -940h-274l272 -494h-434l-205 375l-65 -375h-404zM459 494h213l112 630h-215z" />
<glyph unicode="S" d="M-33 0l72 410h405l-18 -101h215l31 176l-559 254l123 695h1007l-53 -310h-2l-23 -127h-403l22 127h-198l-29 -161l557 -263l-123 -700h-1024z" />
<glyph unicode="T" horiz-adv-x="1146" d="M135 1124l53 310h1010l-55 -310h-303l-197 -1124h-405l198 1124h-301z" />
<glyph unicode="U" d="M-33 0l252 1434h404l-197 -1125h215l197 1125h405l-252 -1434h-1024z" />
<glyph unicode="V" horiz-adv-x="1232" d="M121 1434h383l20 -805l6 -223l88 223l304 805h383l-609 -1434h-471z" />
<glyph unicode="W" horiz-adv-x="1912" d="M-33 0l252 1434h404l-199 -1141h250l198 1141h406l-201 -1141h250l201 1141h403l-252 -1434h-1712z" />
<glyph unicode="X" horiz-adv-x="1179" d="M-131 0l487 711l-235 723h407l105 -353l229 353h406l-492 -723l240 -711h-422l-92 332l-209 -332h-424z" />
<glyph unicode="Y" horiz-adv-x="1218" d="M-33 0l49 274h322l55 316l-256 844h383l117 -525l299 525h383l-555 -844l-55 -316h323l-47 -274h-1018z" />
<glyph unicode="Z" horiz-adv-x="1187" d="M-33 0l56 305l727 819h-584l53 310h987l-53 -310l-727 -815h584l-56 -309h-987z" />
<glyph unicode="[" horiz-adv-x="841" d="M-102 -385l329 1862h684l-55 -310h-278l-220 -1243h279l-55 -309h-684z" />
<glyph unicode="\" horiz-adv-x="788" d="M172 0l27 1434h403l-27 -1434h-403z" />
<glyph unicode="]" horiz-adv-x="841" d="M-143 -385l57 309h279l217 1243h-279l55 310h684l-329 -1862h-684z" />
<glyph unicode="^" horiz-adv-x="702" d="M166 893l72 405l274 136l227 -136l-71 -405l-226 137z" />
<glyph unicode="_" horiz-adv-x="1193" d="M-88 -309l55 309h994l-56 -309h-993z" />
<glyph unicode="a" horiz-adv-x="1173" d="M-33 0l180 1024h973l-92 -522h2l-45 -258h-2l-43 -244h-371l43 244h-231l-43 -244h-371zM426 502h231l43 248h-231z" />
<glyph unicode="b" horiz-adv-x="1173" d="M-33 0l180 1024h973l-84 -479l-309 -150h283l-43 -245l-308 -150h-692zM387 274h193l45 29l14 92h-231zM449 627h194l43 26l14 97h-231z" />
<glyph unicode="c" horiz-adv-x="1058" d="M-8 150l155 874h859l-52 -274h-485l-76 -447l70 -29h411l-49 -274h-538z" />
<glyph unicode="d" horiz-adv-x="1173" d="M-33 0l180 1024h973l-153 -874l-344 -150h-656zM387 274h156l82 29l75 447h-231z" />
<glyph unicode="e" horiz-adv-x="1052" d="M-33 0l180 1024h852l-51 -274h-479l-16 -95h307l-47 -274h-307l-19 -107h481l-49 -274h-852z" />
<glyph unicode="f" horiz-adv-x="1052" d="M-33 0l180 1024h852l-51 -274h-479l-39 -228h408l-50 -274h-407l-43 -248h-371z" />
<glyph unicode="g" horiz-adv-x="1079" d="M-8 150l155 874h879l-51 -274h-506l-76 -447l70 -29h92l39 215h338l-39 -215h2l-49 -274h-559z" />
<glyph unicode="h" horiz-adv-x="1173" d="M-33 0l180 1024h371l-90 -510h231l91 510h370l-180 -1024h-371l43 240h-231l-43 -240h-371z" />
<glyph unicode="i" horiz-adv-x="571" d="M-33 0l180 1024h371l-180 -1024h-371z" />
<glyph unicode="j" horiz-adv-x="950" d="M-33 0l49 274h303l82 29l76 447h-381l51 274h750l-154 -874l-344 -150h-432z" />
<glyph unicode="k" horiz-adv-x="1261" d="M-33 0l180 1024h371l-72 -418l-67 -157l33 34h2l110 117l318 424h395l-451 -508l279 -516h-385l-135 244l-205 -232l-2 -12h-371z" />
<glyph unicode="l" horiz-adv-x="1034" d="M-33 0l180 1024h371l-131 -750h475l-49 -274h-846z" />
<glyph unicode="m" horiz-adv-x="1556" d="M-33 0l180 1024h373l182 -698l426 698h375l-180 -1024h-371l64 354l-199 -354h-344l-72 354l-63 -354h-371z" />
<glyph unicode="n" horiz-adv-x="1173" d="M-33 0l180 1024h373l152 -449l78 449h370l-180 -1024h-373l-151 451l-78 -451h-371z" />
<glyph unicode="o" horiz-adv-x="1173" d="M-33 0l180 1024h973l-180 -1024h-973zM383 258h231l86 492h-231z" />
<glyph unicode="p" horiz-adv-x="1173" d="M-104 -410l71 410h320l-295 150l155 874h973l-20 -111h2l-113 -639l-49 -274h-602l-72 -410h-370zM393 303l70 -29h153l84 476h-231z" />
<glyph unicode="q" horiz-adv-x="1173" d="M-8 150l155 874h973l-20 -111h2l-113 -639l-16 -100l-105 -584h-370l71 410h-282zM393 303l70 -29h155l84 476h-233z" />
<glyph unicode="r" horiz-adv-x="1187" d="M-33 0l180 1024h973l-94 -530h-238l273 -494h-399l-246 449l-78 -449h-371zM424 494h231l45 256h-231z" />
<glyph unicode="s" horiz-adv-x="1173" d="M-33 0l49 274h602l21 113l-596 49l104 588h973l-49 -274h-602l-16 -91l594 -57l-107 -602h-973z" />
<glyph unicode="t" horiz-adv-x="1112" d="M66 750l51 274h973l-50 -274h-301l-131 -750h-370l131 750h-303z" />
<glyph unicode="u" horiz-adv-x="1173" d="M-33 0l180 1024h371l-131 -750h231l132 750h370l-180 -1024h-973z" />
<glyph unicode="v" horiz-adv-x="1241" d="M96 1024h361l102 -623l322 623h360l-567 -1024h-371z" />
<glyph unicode="w" horiz-adv-x="1789" d="M-33 0l180 1024h371l-131 -750h238l131 750h372l-133 -750h240l131 750h371l-181 -1024h-1589z" />
<glyph unicode="x" horiz-adv-x="1228" d="M-53 0l424 512l-244 512h401l97 -205l170 205h401l-424 -512l244 -512h-402l-98 205l-168 -205h-401z" />
<glyph unicode="y" horiz-adv-x="1314" d="M96 1024h373l127 -594l344 594h375l-854 -1434h-348l239 414z" />
<glyph unicode="z" horiz-adv-x="1062" d="M-33 0l45 258l563 508h-475l47 258h865l-47 -258l-564 -508h476l-46 -258h-864z" />
<glyph unicode="{" horiz-adv-x="978" d="M35 -385l121 682l-93 250l179 252l120 678h685l-56 -310h-278l-66 -368l-180 -252l92 -250l-65 -373h280l-55 -309h-684z" />
<glyph unicode="|" horiz-adv-x="604" d="M-63 -410l360 2048h403l-360 -2048h-403z" />
<glyph unicode="}" horiz-adv-x="964" d="M-156 -385l56 309h280l66 373l178 250l-92 252l65 368h-278l55 310h684l-121 -678l90 -252l-178 -250l-121 -682h-684z" />
<glyph unicode="~" horiz-adv-x="1165" d="M92 471l53 305l351 156l292 -156l351 156l-58 -305l-346 -156l-297 156z" />
<glyph unicode="&#xa1;" horiz-adv-x="604" d="M-104 -410l153 879h404l-154 -879h-403zM76 616l71 408h404l-72 -408h-403z" />
<glyph unicode="&#xa2;" horiz-adv-x="1058" d="M33 150l155 874h467l66 369h221l-65 -369h170l-52 -274h-168l-84 -476h172l-49 -274h-172l-63 -369h-221l63 369h-145zM434 303l70 -29h18l84 476h-96z" />
<glyph unicode="&#xa3;" horiz-adv-x="1191" d="M37 0l57 309l117 86h-27l54 310h145l-111 729h967l-72 -410h-303l19 100h-197l68 -419h151l-53 -310h-270l-117 -86h579l-57 -309h-950z" />
<glyph unicode="&#xa5;" horiz-adv-x="1218" d="M100 162l52 305h260l12 74h-258l53 305h137l-178 588h383l117 -525l299 525h383l-387 -588h139l-55 -305h-260l-15 -74h262l-53 -305h-260l-29 -162h-370l26 162h-258z" />
<glyph unicode="&#xa6;" horiz-adv-x="604" d="M-63 -410l108 615h404l-109 -615h-403zM188 1024l109 614h403l-108 -614h-404z" />
<glyph unicode="&#xa9;" horiz-adv-x="1511" d="M8 0l252 1434h1311l-252 -1434h-1311zM379 274h668l157 885h-669zM510 367l123 698h442l-37 -213h-170l-51 -272h172l-37 -213h-442z" />
<glyph unicode="&#xab;" horiz-adv-x="1275" d="M-68 547l181 252h405l-180 -252l92 -250h-403zM768 547l180 252h404l-178 -252l92 -250h-406z" />
<glyph unicode="&#xad;" horiz-adv-x="825" d="M51 475l53 307h625l-53 -307h-625z" />
<glyph unicode="&#xae;" horiz-adv-x="1511" d="M8 0l252 1434h1311l-252 -1434h-1311zM379 274h668l157 885h-669zM510 360l123 705h463l-31 -180h-2l-29 -180h-63l8 -345h-193l-6 345h82l31 180h-86l-92 -525h-205z" />
<glyph unicode="&#xb0;" horiz-adv-x="657" d="M188 1024l72 410h457l-72 -410h-457zM385 1174h115l18 110h-115z" />
<glyph unicode="&#xb7;" horiz-adv-x="602" d="M-106 348l55 305h403l-55 -305h-403z" />
<glyph unicode="&#xbb;" horiz-adv-x="1275" d="M-152 297l181 250l-92 252h403l92 -252l-178 -250h-406zM684 297l178 250l-90 252h404l92 -252l-178 -250h-406z" />
<glyph unicode="&#xbf;" horiz-adv-x="1200" d="M-125 -410l72 410l391 371l18 98h404l-19 -123l-395 -373l-14 -79h235l27 155h403l-53 -297l-26 -162h-1043zM383 616l72 408h403l-72 -408h-403z" />
<glyph unicode="&#xc0;" d="M-33 0l252 1434h1024l-252 -1434h-405l39 219h-215l-39 -219h-404zM231 1911h551l39 -307h-274zM465 526h215l104 598h-215z" />
<glyph unicode="&#xc1;" d="M-33 0l252 1434h1024l-252 -1434h-405l39 219h-215l-39 -219h-404zM465 526h215l104 598h-215zM618 1577l144 307h551l-422 -307h-273z" />
<glyph unicode="&#xc2;" d="M-33 0l252 1434h1024l-252 -1434h-405l39 219h-215l-39 -219h-404zM418 1604l71 405l275 135l227 -135l-71 -405l-226 137zM465 526h215l104 598h-215z" />
<glyph unicode="&#xc3;" d="M-33 0l252 1434h1024l-252 -1434h-405l39 219h-215l-39 -219h-404zM352 1616l58 305l268 115l291 -156l258 117l-51 -303l-258 -117l-295 156zM465 526h215l104 598h-215z" />
<glyph unicode="&#xc4;" d="M-33 0l252 1434h1024l-252 -1434h-405l39 219h-215l-39 -219h-404zM195 1630l55 305h401l-55 -305h-401zM465 526h215l104 598h-215zM666 1630l55 305h401l-55 -305h-401z" />
<glyph unicode="&#xc5;" d="M-33 0l252 1434h1024l-252 -1434h-405l39 219h-215l-39 -219h-404zM465 526h215l104 598h-215zM518 1534l72 412h461l-72 -412h-461zM715 1681h119l18 115h-119z" />
<glyph unicode="&#xc6;" horiz-adv-x="1654" d="M-33 0l252 1434h1024h469l-55 -310h-469l-53 -311h290l-57 -309h-289l-32 -195h469l-56 -309h-469h-405l39 219h-215l-39 -219h-404zM465 526h213l106 598h-215z" />
<glyph unicode="&#xc7;" horiz-adv-x="1036" d="M-18 -410l120 152h310h9h11.5t12 0.5t13.5 1.5t13 2t13.5 4t12 6t12 8t9.5 11h-395l168 225h-10l-293 150l227 1284h844l-53 -310h-441l-137 -788l70 -27h364l-55 -309h-334l-57 -86h313q1 -8 6.5 -29.5t5 -26.5t-1.5 -28q-17 -98 -110.5 -169t-202.5 -71h-444z" />
<glyph unicode="&#xc8;" horiz-adv-x="1062" d="M-33 0l252 1434h873l-54 -310h-469l-55 -311h291l-55 -309h-289l-35 -195h469l-55 -309h-873zM147 1911h551l39 -307h-274z" />
<glyph unicode="&#xc9;" horiz-adv-x="1062" d="M-33 0l252 1434h873l-54 -310h-469l-55 -311h291l-55 -309h-289l-35 -195h469l-55 -309h-873zM535 1577l143 307h551l-422 -307h-272z" />
<glyph unicode="&#xca;" horiz-adv-x="1062" d="M-33 0l252 1434h873l-54 -310h-469l-55 -311h291l-55 -309h-289l-35 -195h469l-55 -309h-873zM334 1604l72 405l274 135l227 -135l-71 -405l-226 137z" />
<glyph unicode="&#xcb;" horiz-adv-x="1062" d="M-33 0l252 1434h873l-54 -310h-469l-55 -311h291l-55 -309h-289l-35 -195h469l-55 -309h-873zM111 1630l55 305h401l-55 -305h-401zM582 1630l55 305h401l-55 -305h-401z" />
<glyph unicode="&#xcc;" horiz-adv-x="636" d="M-53 1911h551l39 -307h-275zM-10 0l252 1434h405l-252 -1434h-405z" />
<glyph unicode="&#xcd;" horiz-adv-x="636" d="M-10 0l252 1434h405l-252 -1434h-405zM332 1577l143 307h551l-422 -307h-272z" />
<glyph unicode="&#xce;" horiz-adv-x="636" d="M-10 0l252 1434h405l-252 -1434h-405zM133 1604l72 405l274 135l228 -135l-72 -405l-225 137z" />
<glyph unicode="&#xcf;" horiz-adv-x="636" d="M-90 1630l55 305h402l-56 -305h-401zM-10 0l252 1434h405l-252 -1434h-405zM381 1630l55 305h402l-56 -305h-401z" />
<glyph unicode="&#xd0;" horiz-adv-x="1323" d="M-18 475l53 307h170l114 652h1024l-227 -1284l-344 -150h-704l84 475h-170zM526 309h140l82 27l137 788h-217l-60 -342h51l-53 -307h-51z" />
<glyph unicode="&#xd1;" horiz-adv-x="1284" d="M-33 0l45 266h2l205 1168h408l188 -633l10 145l86 488h392l-216 -1221l-36 -213h-1084zM383 1616l57 305l269 115l290 -156l258 117l-51 -303l-258 -117l-295 156zM406 266h251l-165 520l-19 -145z" />
<glyph unicode="&#xd2;" d="M-33 0l252 1434h1024l-252 -1434h-1024zM231 1911h551l39 -307h-274zM426 309h215l143 815h-215z" />
<glyph unicode="&#xd3;" d="M-33 0l252 1434h1024l-252 -1434h-1024zM426 309h215l143 815h-215zM618 1577l144 307h551l-422 -307h-273z" />
<glyph unicode="&#xd4;" d="M-33 0l252 1434h1024l-252 -1434h-1024zM418 1604l71 405l275 135l227 -135l-71 -405l-226 137zM426 309h215l143 815h-215z" />
<glyph unicode="&#xd5;" d="M-33 0l252 1434h1024l-252 -1434h-1024zM352 1616l58 305l268 115l291 -156l258 117l-51 -303l-258 -117l-295 156zM426 309h215l143 815h-215z" />
<glyph unicode="&#xd6;" d="M-33 0l252 1434h1024l-252 -1434h-1024zM195 1630l55 305h401l-55 -305h-401zM426 309h215l143 815h-215zM666 1630l55 305h401l-55 -305h-401z" />
<glyph unicode="&#xd7;" horiz-adv-x="1030" d="M74 385l233 199l-162 196l258 217l162 -196l232 196l180 -217l-232 -198l162 -197l-256 -219l-164 196l-231 -196z" />
<glyph unicode="&#xd8;" d="M-33 0l252 1434h1024l-252 -1434h-1024z" />
<glyph unicode="&#xd9;" d="M-33 0l252 1434h404l-197 -1125h215l197 1125h405l-252 -1434h-1024zM231 1911h551l39 -307h-274z" />
<glyph unicode="&#xda;" d="M-33 0l252 1434h404l-197 -1125h215l197 1125h405l-252 -1434h-1024zM618 1577l144 307h551l-422 -307h-273z" />
<glyph unicode="&#xdb;" d="M-33 0l252 1434h404l-197 -1125h215l197 1125h405l-252 -1434h-1024zM418 1604l71 405l275 135l227 -135l-71 -405l-226 137z" />
<glyph unicode="&#xdc;" d="M-33 0l252 1434h404l-197 -1125h215l197 1125h405l-252 -1434h-1024zM195 1630l55 305h401l-55 -305h-401zM666 1630l55 305h401l-55 -305h-401z" />
<glyph unicode="&#xdd;" horiz-adv-x="1218" d="M-33 0l49 274h322l55 316l-256 844h383l117 -525l299 525h383l-555 -844l-55 -316h323l-47 -274h-1018zM616 1577l144 307h551l-422 -307h-273z" />
<glyph unicode="&#xde;" d="M100 0v1434h404v-199h620v-938h-620v-297h-404zM504 606h215v320h-215v-320z" />
<glyph unicode="&#xdf;" horiz-adv-x="1310" d="M70 0l30 168v1266h1229l-53 -310l-432 -387h364l-104 -594l-27 -143h-573v-410h-404v410h-30zM504 274h217l84 463h-301v-463zM504 838l327 286h-327v-286z" />
<glyph unicode="&#xe0;" horiz-adv-x="1173" d="M-33 0l180 1024h973l-92 -522h2l-45 -258h-2l-43 -244h-371l43 244h-231l-43 -244h-371zM137 1501h551l39 -307h-274zM426 502h231l43 248h-231z" />
<glyph unicode="&#xe1;" horiz-adv-x="1173" d="M-33 0l180 1024h973l-92 -522h2l-45 -258h-2l-43 -244h-371l43 244h-231l-43 -244h-371zM426 502h231l43 248h-231zM524 1167l144 308h551l-422 -308h-273z" />
<glyph unicode="&#xe2;" horiz-adv-x="1173" d="M-33 0l180 1024h973l-92 -522h2l-45 -258h-2l-43 -244h-371l43 244h-231l-43 -244h-371zM324 1194l71 405l275 136l227 -136l-72 -405l-225 137zM426 502h231l43 248h-231z" />
<glyph unicode="&#xe3;" horiz-adv-x="1173" d="M-33 0l180 1024h973l-92 -522h2l-45 -258h-2l-43 -244h-371l43 244h-231l-43 -244h-371zM258 1206l57 305l269 115l290 -156l259 117l-52 -303l-258 -117l-295 156zM426 502h231l43 248h-231z" />
<glyph unicode="&#xe4;" horiz-adv-x="1173" d="M-33 0l180 1024h973l-92 -522h2l-45 -258h-2l-43 -244h-371l43 244h-231l-43 -244h-371zM100 1221l56 305h401l-55 -305h-402zM426 502h231l43 248h-231zM571 1221l56 305h401l-55 -305h-402z" />
<glyph unicode="&#xe5;" horiz-adv-x="1173" d="M-33 0l180 1024h973l-92 -522h2l-45 -258h-2l-43 -244h-371l43 244h-231l-43 -244h-371zM422 1124l72 412h460l-71 -412h-461zM426 502h231l43 248h-231zM618 1272h119l19 114h-119z" />
<glyph unicode="&#xe6;" horiz-adv-x="1654" d="M-33 0l180 1024h973h482l-50 -274h-479l-16 -95h307l-49 -274h-305l-21 -107h481l-49 -274h-481h-371l19 111l24 133h-231l-43 -244h-371zM426 502h231l43 248h-231z" />
<glyph unicode="&#xe7;" horiz-adv-x="1058" d="M-8 150l155 874h859l-52 -274h-485l-76 -447l70 -29h411l-49 -274h-340l-57 -86h313q2 -9 7 -29.5t5 -26.5t-1 -28q-17 -98 -111 -169t-203 -71h-444l121 152h309h9h11.5t12 0.5t13.5 1.5t13 2t13.5 4t12 6t12 8t9.5 11h-395l168 225h-16z" />
<glyph unicode="&#xe8;" horiz-adv-x="1052" d="M-33 0l180 1024h852l-51 -274h-479l-16 -95h307l-47 -274h-307l-19 -107h481l-49 -274h-852zM74 1501h551l39 -307h-275z" />
<glyph unicode="&#xe9;" horiz-adv-x="1052" d="M-33 0l180 1024h852l-51 -274h-479l-16 -95h307l-47 -274h-307l-19 -107h481l-49 -274h-852zM461 1167l143 308h551l-422 -308h-272z" />
<glyph unicode="&#xea;" horiz-adv-x="1052" d="M-33 0l180 1024h852l-51 -274h-479l-16 -95h307l-47 -274h-307l-19 -107h481l-49 -274h-852zM260 1194l72 405l274 136l228 -136l-72 -405l-225 137z" />
<glyph unicode="&#xeb;" horiz-adv-x="1052" d="M-33 0l180 1024h852l-51 -274h-479l-16 -95h307l-47 -274h-307l-19 -107h481l-49 -274h-852zM37 1221l55 305h402l-56 -305h-401zM508 1221l55 305h402l-56 -305h-401z" />
<glyph unicode="&#xec;" horiz-adv-x="571" d="M-213 1501h551l39 -307h-275zM-33 0l180 1024h371l-180 -1024h-371z" />
<glyph unicode="&#xed;" horiz-adv-x="571" d="M-33 0l180 1024h371l-180 -1024h-371zM174 1167l143 308h551l-422 -308h-272z" />
<glyph unicode="&#xee;" horiz-adv-x="571" d="M-33 0l180 1024h371l-180 -1024h-371zM-27 1194l72 405l274 136l228 -136l-72 -405l-225 137z" />
<glyph unicode="&#xef;" horiz-adv-x="571" d="M-250 1221l55 305h402l-55 -305h-402zM-33 0l180 1024h371l-180 -1024h-371zM221 1221l55 305h402l-55 -305h-402z" />
<glyph unicode="&#xf0;" horiz-adv-x="1257" d="M100 0v1024h602v41h-210v299h210v68h371v-68h166v-299h-166v-1065h-973zM471 258h231v492h-231v-492z" />
<glyph unicode="&#xf1;" horiz-adv-x="1173" d="M-33 0l180 1024h373l152 -449l78 449h370l-180 -1024h-373l-151 451l-78 -451h-371zM258 1206l57 305l269 115l290 -156l259 117l-52 -303l-258 -117l-295 156z" />
<glyph unicode="&#xf2;" horiz-adv-x="1173" d="M-33 0l180 1024h973l-180 -1024h-973zM137 1501h551l39 -307h-274zM383 258h231l86 492h-231z" />
<glyph unicode="&#xf3;" horiz-adv-x="1173" d="M-33 0l180 1024h973l-180 -1024h-973zM383 258h231l86 492h-231zM524 1167l144 308h551l-422 -308h-273z" />
<glyph unicode="&#xf4;" horiz-adv-x="1173" d="M-33 0l180 1024h973l-180 -1024h-973zM324 1194l71 405l275 136l227 -136l-72 -405l-225 137zM383 258h231l86 492h-231z" />
<glyph unicode="&#xf5;" horiz-adv-x="1173" d="M-33 0l180 1024h973l-180 -1024h-973zM258 1206l57 305l269 115l290 -156l259 117l-52 -303l-258 -117l-295 156zM383 258h231l86 492h-231z" />
<glyph unicode="&#xf6;" horiz-adv-x="1173" d="M-33 0l180 1024h973l-180 -1024h-973zM100 1221l56 305h401l-55 -305h-402zM383 258h231l86 492h-231zM571 1221l56 305h401l-55 -305h-402z" />
<glyph unicode="&#xf7;" horiz-adv-x="1091" d="M92 475l53 307h891l-53 -307h-891zM135 86l55 307h402l-55 -307h-402zM272 864l56 307h403l-57 -307h-402z" />
<glyph unicode="&#xf8;" horiz-adv-x="1173" d="M-33 -2l180 1024h402l67 205h404l-68 -205h168l-180 -1024h-330l-67 -205h-404l68 205h-240z" />
<glyph unicode="&#xf9;" horiz-adv-x="1173" d="M-33 0l180 1024h371l-131 -750h231l132 750h370l-180 -1024h-973zM137 1501h551l39 -307h-274z" />
<glyph unicode="&#xfa;" horiz-adv-x="1173" d="M-33 0l180 1024h371l-131 -750h231l132 750h370l-180 -1024h-973zM524 1167l144 308h551l-422 -308h-273z" />
<glyph unicode="&#xfb;" horiz-adv-x="1173" d="M-33 0l180 1024h371l-131 -750h231l132 750h370l-180 -1024h-973zM324 1194l71 405l275 136l227 -136l-72 -405l-225 137z" />
<glyph unicode="&#xfc;" horiz-adv-x="1173" d="M-33 0l180 1024h371l-131 -750h231l132 750h370l-180 -1024h-973zM100 1221l56 305h401l-55 -305h-402zM571 1221l56 305h401l-55 -305h-402z" />
<glyph unicode="&#xfd;" horiz-adv-x="1314" d="M96 1024h373l127 -594l344 594h375l-854 -1434h-348l239 414zM594 1167l143 308h551l-422 -308h-272z" />
<glyph unicode="&#xfe;" d="M100 -410v1844h404v-410h620v-1024h-620v-410h-404zM504 309h215v406h-215v-406z" />
<glyph unicode="&#xff;" horiz-adv-x="1314" d="M96 1024h373l127 -594l344 594h375l-854 -1434h-348l239 414zM172 1221l55 305h402l-56 -305h-401zM643 1221l55 305h402l-56 -305h-401z" />
<glyph unicode="&#x152;" horiz-adv-x="1654" d="M-33 0l252 1434h619h405h469l-55 -310h-469l-53 -311h290l-57 -309h-289l-32 -195h469l-56 -309h-469h-405h-619zM426 309h213l145 815h-215z" />
<glyph unicode="&#x153;" horiz-adv-x="1654" d="M-33 0l180 1024h973h482l-50 -274h-479l-16 -95h307l-49 -274h-307l-19 -107h481l-49 -274h-481h-371h-602zM383 258h231l86 492h-231z" />
<glyph unicode="&#x178;" horiz-adv-x="1218" d="M-33 0l49 274h322l55 316l-256 844h383l117 -525l299 525h383l-555 -844l-55 -316h323l-47 -274h-1018zM193 1630l55 305h401l-55 -305h-401zM664 1630l55 305h401l-55 -305h-401z" />
<glyph unicode="&#x2000;" horiz-adv-x="1072" />
<glyph unicode="&#x2001;" horiz-adv-x="2144" />
<glyph unicode="&#x2002;" horiz-adv-x="1072" />
<glyph unicode="&#x2003;" horiz-adv-x="2144" />
<glyph unicode="&#x2004;" horiz-adv-x="714" />
<glyph unicode="&#x2005;" horiz-adv-x="536" />
<glyph unicode="&#x2006;" horiz-adv-x="357" />
<glyph unicode="&#x2007;" horiz-adv-x="357" />
<glyph unicode="&#x2008;" horiz-adv-x="268" />
<glyph unicode="&#x2009;" horiz-adv-x="428" />
<glyph unicode="&#x200a;" horiz-adv-x="119" />
<glyph unicode="&#x2010;" horiz-adv-x="825" d="M51 475l53 307h625l-53 -307h-625z" />
<glyph unicode="&#x2011;" horiz-adv-x="825" d="M51 475l53 307h625l-53 -307h-625z" />
<glyph unicode="&#x2012;" horiz-adv-x="825" d="M51 475l53 307h625l-53 -307h-625z" />
<glyph unicode="&#x2013;" horiz-adv-x="1284" d="M51 475l53 307h1084l-53 -307h-1084z" />
<glyph unicode="&#x2014;" horiz-adv-x="1525" d="M51 475l53 307h1326l-54 -307h-1325z" />
<glyph unicode="&#x2018;" horiz-adv-x="573" d="M70 922l53 311l463 393l-219 -393h135l-53 -311h-379z" />
<glyph unicode="&#x2019;" horiz-adv-x="651" d="M70 729l217 393h-135l51 312h379l-52 -312z" />
<glyph unicode="&#x201a;" horiz-adv-x="602" d="M-100 -393l217 393h-137l53 311h379l-54 -311z" />
<glyph unicode="&#x201c;" horiz-adv-x="1083" d="M70 729l53 311l463 394l-219 -394h135l-53 -311h-379zM580 729l53 311l463 394l-222 -394h138l-54 -311h-378z" />
<glyph unicode="&#x201d;" horiz-adv-x="1161" d="M70 729l217 393h-135l51 312h379l-52 -312zM580 729l217 393h-138l54 312h379l-54 -312z" />
<glyph unicode="&#x201e;" horiz-adv-x="1114" d="M-207 -393l217 393h-137l53 311h379l-53 -311zM516 -393l215 393h-135l53 311h379l-53 -311z" />
<glyph unicode="&#x2022;" horiz-adv-x="817" d="M23 203l102 575h577l-104 -575h-575z" />
<glyph unicode="&#x2026;" horiz-adv-x="1794" d="M-166 0l55 305h402l-55 -305h-402zM430 0l55 305h402l-56 -305h-401zM1026 0l55 305h404l-55 -305h-404z" />
<glyph unicode="&#x202f;" horiz-adv-x="428" />
<glyph unicode="&#x2039;" horiz-adv-x="733" d="M63 547l179 252h405l-180 -252l92 -250h-403z" />
<glyph unicode="&#x203a;" horiz-adv-x="698" d="M-20 297l178 250l-92 252h405l90 -252l-178 -250h-403z" />
<glyph unicode="&#x205f;" horiz-adv-x="536" />
<glyph unicode="&#x20ac;" horiz-adv-x="1294" d="M27 340l55 305h287l12 74h-287l53 305h289l72 410h846l-54 -310h-442l-16 -100h196l-51 -305h-199l-12 -74h197l-53 -305h-197l-2 -4l72 -27h364l-55 -309h-527l-294 150l34 190h-288z" />
<glyph unicode="&#x2122;" horiz-adv-x="2103" d="M197 1182l43 252h733l-43 -252h-217l-90 -512h-304l91 512h-213zM975 670l135 764h338l139 -351l260 351h338l-135 -764h-1075zM1313 885h108l-73 217l-23 -141zM1688 885h102l14 76l27 141z" />
<glyph unicode="&#x25fc;" horiz-adv-x="1024" d="M0 0v1024h1024v-1024h-1024z" />
</font>
</defs>
</svg>
