<?xml version="1.0" encoding="utf-8"?>
<!-- Generated by IcoMoon.io -->
<!DOCTYPE svg PUBLIC "-//W3C//DTD SVG 1.1//EN" "http://www.w3.org/Graphics/SVG/1.1/DTD/svg11.dtd">
<svg version="1.1" xmlns="http://www.w3.org/2000/svg" xmlns:xlink="http://www.w3.org/1999/xlink" width="16" height="16" viewBox="0 0 16 16">
<g>
</g>
	<path d="M14.982 6.954l-0.604-0.834c-0.428-0.297-0.93-0.938-1.116-1.424l-0.356-0.931c-0.185-0.486-0.764-0.884-1.285-0.884h-7.176c-0.521 0-1.102 0.397-1.292 0.882l-0.364 0.933c-0.19 0.485-0.695 1.124-1.124 1.419l-0.613 0.841c-0.18 0.489-0.327 1.315-0.327 1.836v5.113c0 0.52 0.426 0.947 0.947 0.947h0.78c0.521 0 0.947-0.32 0.947-0.711 0-0.391 0.426-0.711 0.947-0.711h7.341c0.521 0 0.947 0.32 0.947 0.711 0 0.391 0.427 0.711 0.947 0.711h0.78c0.521 0 0.947-0.427 0.947-0.947v-5.113c0-0.522-0.147-1.348-0.326-1.837zM3.443 5.65l0.596-1.561h8.069l0.491 1.543c0.158 0.497-0.139 0.902-0.66 0.902h-7.887c-0.521 0-0.795-0.398-0.609-0.885zM4.508 10.621c0 0.523-0.424 0.947-0.947 0.947h-0.814c-0.523 0-0.947-0.424-0.947-0.947v-0.737c0-0.523 0.424-0.947 0.947-0.947h0.814c0.523 0 0.947 0.424 0.947 0.947v0.737zM9.906 12.831h-3.781v-0.822h3.781v0.822zM14.127 10.621c0 0.523-0.424 0.947-0.947 0.947h-0.814c-0.523 0-0.948-0.424-0.948-0.947v-0.737c0-0.523 0.424-0.947 0.948-0.947h0.814c0.523 0 0.947 0.424 0.947 0.947v0.737z" fill="#ffffff" />
</svg>
